<mxfile host="app.diagrams.net" modified="2020-11-12T13:51:10.678Z" agent="5.0 (Windows NT 10.0; Win64; x64) AppleWebKit/537.36 (KHTML, like Gecko) Chrome/86.0.4240.183 Safari/537.36 Edg/86.0.622.63" etag="19BEWqJrIn3QstCNd29O" version="13.9.3" type="github">
  <diagram id="fYyJuNy1kulYyTYLwvym" name="Page-1">
    <mxGraphModel dx="1422" dy="762" grid="1" gridSize="10" guides="1" tooltips="1" connect="1" arrows="1" fold="1" page="1" pageScale="1" pageWidth="1169" pageHeight="827" math="0" shadow="0">
      <root>
        <mxCell id="0" />
        <mxCell id="1" parent="0" />
        <object placeholders="1" c4Name="Aluno" c4Type="Person" c4Description="Acessar os &#xa;agendamentos &#xa;de aula" label="&lt;b&gt;%c4Name%&lt;/b&gt;&lt;div&gt;[%c4Type%]&lt;/div&gt;&lt;br&gt;&lt;div&gt;%c4Description%&lt;/div&gt;" id="31FwN5N3vUkHL14qTQsM-1">
          <mxCell style="html=1;dashed=0;whitespace=wrap;fillColor=#08427b;strokeColor=none;fontColor=#ffffff;shape=mxgraph.c4.person;align=center;metaEdit=1;points=[[0.5,0,0],[1,0.5,0],[1,0.75,0],[0.75,1,0],[0.5,1,0],[0.25,1,0],[0,0.75,0],[0,0.5,0]];metaData={&quot;c4Type&quot;:{&quot;editable&quot;:false}};" vertex="1" parent="1">
            <mxGeometry x="350" y="50" width="110.00000000000001" height="140" as="geometry" />
          </mxCell>
        </object>
        <object placeholders="1" c4Name="Professor" c4Type="Person" c4Description="Acessar e &#xa;criar agendamento &#xa;de Aulas" label="&lt;b&gt;%c4Name%&lt;/b&gt;&lt;div&gt;[%c4Type%]&lt;/div&gt;&lt;br&gt;&lt;div&gt;%c4Description%&lt;/div&gt;" id="31FwN5N3vUkHL14qTQsM-2">
          <mxCell style="html=1;dashed=0;whitespace=wrap;fillColor=#08427b;strokeColor=none;fontColor=#ffffff;shape=mxgraph.c4.person;align=center;metaEdit=1;points=[[0.5,0,0],[1,0.5,0],[1,0.75,0],[0.75,1,0],[0.5,1,0],[0.25,1,0],[0,0.75,0],[0,0.5,0]];metaData={&quot;c4Type&quot;:{&quot;editable&quot;:false}};" vertex="1" parent="1">
            <mxGeometry x="510" y="50" width="110.00000000000001" height="140" as="geometry" />
          </mxCell>
        </object>
        <object placeholders="1" c4Name="Salas Virtuais" c4Type="Software System" c4Description="Sistema de Gerenciamento de Salas Virtuais" label="&lt;b&gt;%c4Name%&lt;/b&gt;&lt;div&gt;[%c4Type%]&lt;/div&gt;&lt;br&gt;&lt;div&gt;%c4Description%&lt;/div&gt;" id="31FwN5N3vUkHL14qTQsM-3">
          <mxCell style="rounded=1;whiteSpace=wrap;html=1;labelBackgroundColor=none;fillColor=#1168BD;fontColor=#ffffff;align=center;arcSize=10;strokeColor=#1168BD;metaEdit=1;metaData={&quot;c4Type&quot;:{&quot;editable&quot;:false}};points=[[0.25,0,0],[0.5,0,0],[0.75,0,0],[1,0.25,0],[1,0.5,0],[1,0.75,0],[0.75,1,0],[0.5,1,0],[0.25,1,0],[0,0.75,0],[0,0.5,0],[0,0.25,0]];" vertex="1" parent="1">
            <mxGeometry x="485" y="414" width="160" height="110.00000000000001" as="geometry" />
          </mxCell>
        </object>
        <object placeholders="1" c4Name="ForEdu" c4Type="Software System" c4Description="Criação de Salas Virtuais&#xa;no Google meeting" label="&lt;b&gt;%c4Name%&lt;/b&gt;&lt;div&gt;[%c4Type%]&lt;/div&gt;&lt;br&gt;&lt;div&gt;%c4Description%&lt;/div&gt;" id="31FwN5N3vUkHL14qTQsM-4">
          <mxCell style="rounded=1;whiteSpace=wrap;html=1;labelBackgroundColor=none;fillColor=#999999;fontColor=#ffffff;align=center;arcSize=10;strokeColor=#8A8A8A;metaEdit=1;metaData={&quot;c4Type&quot;:{&quot;editable&quot;:false}};points=[[0.25,0,0],[0.5,0,0],[0.75,0,0],[1,0.25,0],[1,0.5,0],[1,0.75,0],[0.75,1,0],[0.5,1,0],[0.25,1,0],[0,0.75,0],[0,0.5,0],[0,0.25,0]];" vertex="1" parent="1">
            <mxGeometry x="830" y="420" width="160" height="110.00000000000001" as="geometry" />
          </mxCell>
        </object>
        <object placeholders="1" c4Name="Gestores" c4Type="Person" c4Description="Acessar e &#xa;criar e agendamento&#xa;de sala de professores" label="&lt;b&gt;%c4Name%&lt;/b&gt;&lt;div&gt;[%c4Type%]&lt;/div&gt;&lt;br&gt;&lt;div&gt;%c4Description%&lt;/div&gt;" id="31FwN5N3vUkHL14qTQsM-5">
          <mxCell style="html=1;dashed=0;whitespace=wrap;fillColor=#08427b;strokeColor=none;fontColor=#ffffff;shape=mxgraph.c4.person;align=center;metaEdit=1;points=[[0.5,0,0],[1,0.5,0],[1,0.75,0],[0.75,1,0],[0.5,1,0],[0.25,1,0],[0,0.75,0],[0,0.5,0]];metaData={&quot;c4Type&quot;:{&quot;editable&quot;:false}};" vertex="1" parent="1">
            <mxGeometry x="660" y="50" width="110.00000000000001" height="140" as="geometry" />
          </mxCell>
        </object>
        <object placeholders="1" c4Type="Relationship" c4Technology="Rest/json" c4Description="Criação Salas" label="&lt;div style=&quot;text-align: left&quot;&gt;&lt;div style=&quot;text-align: center&quot;&gt;&lt;b&gt;%c4Description%&lt;/b&gt;&lt;/div&gt;&lt;div style=&quot;text-align: center&quot;&gt;[%c4Technology%]&lt;/div&gt;&lt;/div&gt;" id="31FwN5N3vUkHL14qTQsM-6">
          <mxCell style="edgeStyle=none;rounded=0;html=1;entryX=0;entryY=0.5;jettySize=auto;orthogonalLoop=1;strokeColor=#707070;strokeWidth=2;fontColor=#707070;jumpStyle=none;dashed=1;metaEdit=1;metaData={&quot;c4Type&quot;:{&quot;editable&quot;:false}};entryDx=0;entryDy=0;entryPerimeter=0;exitX=1;exitY=0.5;exitDx=0;exitDy=0;exitPerimeter=0;" edge="1" parent="1" source="31FwN5N3vUkHL14qTQsM-3" target="31FwN5N3vUkHL14qTQsM-4">
            <mxGeometry x="-0.125" y="10" width="160" relative="1" as="geometry">
              <mxPoint x="660" y="370" as="sourcePoint" />
              <mxPoint x="820" y="370" as="targetPoint" />
              <Array as="points" />
              <mxPoint as="offset" />
            </mxGeometry>
          </mxCell>
        </object>
        <object placeholders="1" c4Type="Relationship" c4Technology="Https" c4Description="Acessa, Cria, &#xa;Edita e Remove &#xa;Agendamentos da&#xa;Sala de Professores" label="&lt;div style=&quot;text-align: left&quot;&gt;&lt;div style=&quot;text-align: center&quot;&gt;&lt;b&gt;%c4Description%&lt;/b&gt;&lt;/div&gt;&lt;div style=&quot;text-align: center&quot;&gt;[%c4Technology%]&lt;/div&gt;&lt;/div&gt;" id="31FwN5N3vUkHL14qTQsM-7">
          <mxCell style="edgeStyle=none;rounded=0;html=1;entryX=0.75;entryY=0;jettySize=auto;orthogonalLoop=1;strokeColor=#707070;strokeWidth=2;fontColor=#707070;jumpStyle=none;dashed=1;metaEdit=1;metaData={&quot;c4Type&quot;:{&quot;editable&quot;:false}};entryDx=0;entryDy=0;entryPerimeter=0;exitX=0.5;exitY=1;exitDx=0;exitDy=0;exitPerimeter=0;" edge="1" parent="1" source="31FwN5N3vUkHL14qTQsM-5" target="31FwN5N3vUkHL14qTQsM-3">
            <mxGeometry width="160" relative="1" as="geometry">
              <mxPoint x="690" y="120" as="sourcePoint" />
              <mxPoint x="850" y="120" as="targetPoint" />
            </mxGeometry>
          </mxCell>
        </object>
        <object placeholders="1" c4Type="Relationship" c4Technology="Https" c4Description="Acessar agendamento" label="&lt;div style=&quot;text-align: left&quot;&gt;&lt;div style=&quot;text-align: center&quot;&gt;&lt;b&gt;%c4Description%&lt;/b&gt;&lt;/div&gt;&lt;div style=&quot;text-align: center&quot;&gt;[%c4Technology%]&lt;/div&gt;&lt;/div&gt;" id="31FwN5N3vUkHL14qTQsM-8">
          <mxCell style="edgeStyle=none;rounded=0;html=1;entryX=0.25;entryY=0;jettySize=auto;orthogonalLoop=1;strokeColor=#707070;strokeWidth=2;fontColor=#707070;jumpStyle=none;dashed=1;metaEdit=1;metaData={&quot;c4Type&quot;:{&quot;editable&quot;:false}};exitX=0.5;exitY=1;exitDx=0;exitDy=0;exitPerimeter=0;entryDx=0;entryDy=0;entryPerimeter=0;" edge="1" parent="1" source="31FwN5N3vUkHL14qTQsM-1" target="31FwN5N3vUkHL14qTQsM-3">
            <mxGeometry width="160" relative="1" as="geometry">
              <mxPoint x="280" y="210" as="sourcePoint" />
              <mxPoint x="440" y="210" as="targetPoint" />
            </mxGeometry>
          </mxCell>
        </object>
        <object placeholders="1" c4Type="Relationship" c4Technology="Https" c4Description="Acessa, Cria, &#xa;Edita e Remove &#xa;Agendamentos" label="&lt;div style=&quot;text-align: left&quot;&gt;&lt;div style=&quot;text-align: center&quot;&gt;&lt;b&gt;%c4Description%&lt;/b&gt;&lt;/div&gt;&lt;div style=&quot;text-align: center&quot;&gt;[%c4Technology%]&lt;/div&gt;&lt;/div&gt;" id="31FwN5N3vUkHL14qTQsM-9">
          <mxCell style="edgeStyle=none;rounded=0;html=1;entryX=0.5;entryY=0;jettySize=auto;orthogonalLoop=1;strokeColor=#707070;strokeWidth=2;fontColor=#707070;jumpStyle=none;dashed=1;metaEdit=1;metaData={&quot;c4Type&quot;:{&quot;editable&quot;:false}};entryDx=0;entryDy=0;entryPerimeter=0;exitX=0.5;exitY=1;exitDx=0;exitDy=0;exitPerimeter=0;" edge="1" parent="1" source="31FwN5N3vUkHL14qTQsM-2" target="31FwN5N3vUkHL14qTQsM-3">
            <mxGeometry width="160" relative="1" as="geometry">
              <mxPoint x="440" y="210" as="sourcePoint" />
              <mxPoint x="600" y="210" as="targetPoint" />
            </mxGeometry>
          </mxCell>
        </object>
        <object placeholders="1" c4Type="Relationship" c4Technology="Rest/Json" c4Description="Envia Link do &#xa;Google Meeting" label="&lt;div style=&quot;text-align: left&quot;&gt;&lt;div style=&quot;text-align: center&quot;&gt;&lt;b&gt;%c4Description%&lt;/b&gt;&lt;/div&gt;&lt;div style=&quot;text-align: center&quot;&gt;[%c4Technology%]&lt;/div&gt;&lt;/div&gt;" id="31FwN5N3vUkHL14qTQsM-10">
          <mxCell style="edgeStyle=none;rounded=0;html=1;entryX=1;entryY=0.75;jettySize=auto;orthogonalLoop=1;strokeColor=#707070;strokeWidth=2;fontColor=#707070;jumpStyle=none;dashed=1;metaEdit=1;metaData={&quot;c4Type&quot;:{&quot;editable&quot;:false}};exitX=0;exitY=0.75;exitDx=0;exitDy=0;exitPerimeter=0;entryDx=0;entryDy=0;entryPerimeter=0;" edge="1" parent="1" source="31FwN5N3vUkHL14qTQsM-4" target="31FwN5N3vUkHL14qTQsM-3">
            <mxGeometry y="8" width="160" relative="1" as="geometry">
              <mxPoint x="660" y="460" as="sourcePoint" />
              <mxPoint x="820" y="460" as="targetPoint" />
              <Array as="points" />
              <mxPoint as="offset" />
            </mxGeometry>
          </mxCell>
        </object>
        <object placeholders="1" c4Name="SAML" c4Type="Software System" c4Description="Realiza Autenticação e faz redirecionamento" label="&lt;b&gt;%c4Name%&lt;/b&gt;&lt;div&gt;[%c4Type%]&lt;/div&gt;&lt;br&gt;&lt;div&gt;%c4Description%&lt;/div&gt;" id="31FwN5N3vUkHL14qTQsM-11">
          <mxCell style="rounded=1;whiteSpace=wrap;html=1;labelBackgroundColor=none;fillColor=#999999;fontColor=#ffffff;align=center;arcSize=10;strokeColor=#8A8A8A;metaEdit=1;metaData={&quot;c4Type&quot;:{&quot;editable&quot;:false}};points=[[0.25,0,0],[0.5,0,0],[0.75,0,0],[1,0.25,0],[1,0.5,0],[1,0.75,0],[0.75,1,0],[0.5,1,0],[0.25,1,0],[0,0.75,0],[0,0.5,0],[0,0.25,0]];" vertex="1" parent="1">
            <mxGeometry x="830" y="240" width="160" height="110.00000000000001" as="geometry" />
          </mxCell>
        </object>
        <object placeholders="1" c4Type="Relationship" c4Technology="Https" c4Description="Token e Link &#xa;de Redirecionamento" label="&lt;div style=&quot;text-align: left&quot;&gt;&lt;div style=&quot;text-align: center&quot;&gt;&lt;b&gt;%c4Description%&lt;/b&gt;&lt;/div&gt;&lt;div style=&quot;text-align: center&quot;&gt;[%c4Technology%]&lt;/div&gt;&lt;/div&gt;" id="31FwN5N3vUkHL14qTQsM-12">
          <mxCell style="edgeStyle=none;rounded=0;html=1;entryX=0;entryY=0.5;jettySize=auto;orthogonalLoop=1;strokeColor=#707070;strokeWidth=2;fontColor=#707070;jumpStyle=none;dashed=1;metaEdit=1;metaData={&quot;c4Type&quot;:{&quot;editable&quot;:false}};entryDx=0;entryDy=0;entryPerimeter=0;exitX=1;exitY=0.327;exitDx=0;exitDy=0;exitPerimeter=0;" edge="1" parent="1" source="31FwN5N3vUkHL14qTQsM-3" target="31FwN5N3vUkHL14qTQsM-11">
            <mxGeometry x="-0.1504" y="9" width="160" relative="1" as="geometry">
              <mxPoint x="660" y="350" as="sourcePoint" />
              <mxPoint x="820" y="350" as="targetPoint" />
              <mxPoint as="offset" />
            </mxGeometry>
          </mxCell>
        </object>
        <object placeholders="1" c4Name="Escola Em Movimento" c4Type="Software System" c4Description="Fornece Contas, Grades e enturmação para integração" label="&lt;b&gt;%c4Name%&lt;/b&gt;&lt;div&gt;[%c4Type%]&lt;/div&gt;&lt;br&gt;&lt;div&gt;%c4Description%&lt;/div&gt;" id="31FwN5N3vUkHL14qTQsM-13">
          <mxCell style="rounded=1;whiteSpace=wrap;html=1;labelBackgroundColor=none;fillColor=#999999;fontColor=#ffffff;align=center;arcSize=10;strokeColor=#8A8A8A;metaEdit=1;metaData={&quot;c4Type&quot;:{&quot;editable&quot;:false}};points=[[0.25,0,0],[0.5,0,0],[0.75,0,0],[1,0.25,0],[1,0.5,0],[1,0.75,0],[0.75,1,0],[0.5,1,0],[0.25,1,0],[0,0.75,0],[0,0.5,0],[0,0.25,0]];" vertex="1" parent="1">
            <mxGeometry x="20" y="420" width="160" height="110.00000000000001" as="geometry" />
          </mxCell>
        </object>
        <object placeholders="1" c4Name="Hub" c4Type="Software System" c4Description="Fornece informações do Perfil e da &#xa; escola do Usuário" label="&lt;b&gt;%c4Name%&lt;/b&gt;&lt;div&gt;[%c4Type%]&lt;/div&gt;&lt;br&gt;&lt;div&gt;%c4Description%&lt;/div&gt;" id="31FwN5N3vUkHL14qTQsM-14">
          <mxCell style="rounded=1;whiteSpace=wrap;html=1;labelBackgroundColor=none;fillColor=#999999;fontColor=#ffffff;align=center;arcSize=10;strokeColor=#8A8A8A;metaEdit=1;metaData={&quot;c4Type&quot;:{&quot;editable&quot;:false}};points=[[0.25,0,0],[0.5,0,0],[0.75,0,0],[1,0.25,0],[1,0.5,0],[1,0.75,0],[0.75,1,0],[0.5,1,0],[0.25,1,0],[0,0.75,0],[0,0.5,0],[0,0.25,0]];" vertex="1" parent="1">
            <mxGeometry x="20" y="290" width="160" height="110.00000000000001" as="geometry" />
          </mxCell>
        </object>
        <object placeholders="1" c4Type="Relationship" c4Technology="AMQP (?)" c4Description="Informa dados Contas,&#xa;Grades e Enturmação" label="&lt;div style=&quot;text-align: left&quot;&gt;&lt;div style=&quot;text-align: center&quot;&gt;&lt;b&gt;%c4Description%&lt;/b&gt;&lt;/div&gt;&lt;div style=&quot;text-align: center&quot;&gt;[%c4Technology%]&lt;/div&gt;&lt;/div&gt;" id="31FwN5N3vUkHL14qTQsM-15">
          <mxCell style="edgeStyle=none;rounded=0;html=1;jettySize=auto;orthogonalLoop=1;strokeColor=#707070;strokeWidth=2;fontColor=#707070;jumpStyle=none;dashed=1;metaEdit=1;metaData={&quot;c4Type&quot;:{&quot;editable&quot;:false}};exitX=1;exitY=0.418;exitDx=0;exitDy=0;exitPerimeter=0;entryX=0;entryY=0.5;entryDx=0;entryDy=0;entryPerimeter=0;" edge="1" parent="1" source="31FwN5N3vUkHL14qTQsM-13" target="31FwN5N3vUkHL14qTQsM-3">
            <mxGeometry width="160" relative="1" as="geometry">
              <mxPoint x="420" y="610" as="sourcePoint" />
              <mxPoint x="260" y="580" as="targetPoint" />
            </mxGeometry>
          </mxCell>
        </object>
        <object placeholders="1" c4Type="Relationship" c4Technology="Https/Json" c4Description="Acessa dados do Usuário" label="&lt;div style=&quot;text-align: left&quot;&gt;&lt;div style=&quot;text-align: center&quot;&gt;&lt;b&gt;%c4Description%&lt;/b&gt;&lt;/div&gt;&lt;div style=&quot;text-align: center&quot;&gt;[%c4Technology%]&lt;/div&gt;&lt;/div&gt;" id="31FwN5N3vUkHL14qTQsM-17">
          <mxCell style="edgeStyle=none;rounded=0;html=1;jettySize=auto;orthogonalLoop=1;strokeColor=#707070;strokeWidth=2;fontColor=#707070;jumpStyle=none;dashed=1;metaEdit=1;metaData={&quot;c4Type&quot;:{&quot;editable&quot;:false}};exitX=0;exitY=0.25;exitDx=0;exitDy=0;exitPerimeter=0;entryX=1;entryY=0.5;entryDx=0;entryDy=0;entryPerimeter=0;" edge="1" parent="1" source="31FwN5N3vUkHL14qTQsM-3" target="31FwN5N3vUkHL14qTQsM-14">
            <mxGeometry width="160" relative="1" as="geometry">
              <mxPoint x="180" y="350" as="sourcePoint" />
              <mxPoint x="340" y="290" as="targetPoint" />
              <Array as="points" />
            </mxGeometry>
          </mxCell>
        </object>
        <object placeholders="1" c4Name="Microsoft Teams" c4Type="Software System" c4Description="Criação de Salas Virtuais&#xa;no Teams" label="&lt;b&gt;%c4Name%&lt;/b&gt;&lt;div&gt;[%c4Type%]&lt;/div&gt;&lt;br&gt;&lt;div&gt;%c4Description%&lt;/div&gt;" id="31FwN5N3vUkHL14qTQsM-20">
          <mxCell style="rounded=1;whiteSpace=wrap;html=1;labelBackgroundColor=none;fillColor=#999999;fontColor=#ffffff;align=center;arcSize=10;strokeColor=#8A8A8A;metaEdit=1;metaData={&quot;c4Type&quot;:{&quot;editable&quot;:false}};points=[[0.25,0,0],[0.5,0,0],[0.75,0,0],[1,0.25,0],[1,0.5,0],[1,0.75,0],[0.75,1,0],[0.5,1,0],[0.25,1,0],[0,0.75,0],[0,0.5,0],[0,0.25,0]];" vertex="1" parent="1">
            <mxGeometry x="830" y="580" width="160" height="110.00000000000001" as="geometry" />
          </mxCell>
        </object>
        <object placeholders="1" c4Type="Relationship" c4Technology="Rest/json" c4Description="Criação Salas" label="&lt;div style=&quot;text-align: left&quot;&gt;&lt;div style=&quot;text-align: center&quot;&gt;&lt;b&gt;%c4Description%&lt;/b&gt;&lt;/div&gt;&lt;div style=&quot;text-align: center&quot;&gt;[%c4Technology%]&lt;/div&gt;&lt;/div&gt;" id="31FwN5N3vUkHL14qTQsM-21">
          <mxCell style="edgeStyle=none;rounded=0;html=1;entryX=0;entryY=0.5;jettySize=auto;orthogonalLoop=1;strokeColor=#707070;strokeWidth=2;fontColor=#707070;jumpStyle=none;dashed=1;metaEdit=1;metaData={&quot;c4Type&quot;:{&quot;editable&quot;:false}};entryDx=0;entryDy=0;entryPerimeter=0;exitX=0.75;exitY=1;exitDx=0;exitDy=0;exitPerimeter=0;" edge="1" parent="1" target="31FwN5N3vUkHL14qTQsM-20" source="31FwN5N3vUkHL14qTQsM-3">
            <mxGeometry x="-0.125" y="10" width="160" relative="1" as="geometry">
              <mxPoint x="645" y="599" as="sourcePoint" />
              <mxPoint x="820" y="500" as="targetPoint" />
              <Array as="points" />
              <mxPoint as="offset" />
            </mxGeometry>
          </mxCell>
        </object>
        <object placeholders="1" c4Type="Relationship" c4Technology="Rest/Json" c4Description="Envia Link do &#xa;Teams" label="&lt;div style=&quot;text-align: left&quot;&gt;&lt;div style=&quot;text-align: center&quot;&gt;&lt;b&gt;%c4Description%&lt;/b&gt;&lt;/div&gt;&lt;div style=&quot;text-align: center&quot;&gt;[%c4Technology%]&lt;/div&gt;&lt;/div&gt;" id="31FwN5N3vUkHL14qTQsM-22">
          <mxCell style="edgeStyle=none;rounded=0;html=1;entryX=0.344;entryY=1.055;jettySize=auto;orthogonalLoop=1;strokeColor=#707070;strokeWidth=2;fontColor=#707070;jumpStyle=none;dashed=1;metaEdit=1;metaData={&quot;c4Type&quot;:{&quot;editable&quot;:false}};exitX=0;exitY=0.75;exitDx=0;exitDy=0;exitPerimeter=0;entryDx=0;entryDy=0;entryPerimeter=0;" edge="1" parent="1" source="31FwN5N3vUkHL14qTQsM-20" target="31FwN5N3vUkHL14qTQsM-3">
            <mxGeometry y="8" width="160" relative="1" as="geometry">
              <mxPoint x="660" y="590" as="sourcePoint" />
              <mxPoint x="645" y="626.5" as="targetPoint" />
              <Array as="points" />
              <mxPoint as="offset" />
            </mxGeometry>
          </mxCell>
        </object>
      </root>
    </mxGraphModel>
  </diagram>
</mxfile>
